<?xml version="1.0" standalone="no"?>
<!DOCTYPE svg PUBLIC "-//W3C//DTD SVG 20010904//EN"
 "http://www.w3.org/TR/2001/REC-SVG-20010904/DTD/svg10.dtd">
<svg version="1.0" xmlns="http://www.w3.org/2000/svg"
 width="711.000000pt" height="565.000000pt" viewBox="0 0 711.000000 565.000000"
 preserveAspectRatio="xMidYMid meet">
<metadata>
Created by potrace 1.16, written by Peter Selinger 2001-2019
</metadata>
<g transform="translate(0.000000,565.000000) scale(0.100000,-0.100000)"
fill="#000000" stroke="none">
<path d="M3692 5305 c-42 -14 -105 -59 -172 -125 -20 -19 -47 -44 -61 -56
-104 -89 -274 -374 -359 -604 -7 -19 -28 -67 -46 -105 -19 -39 -34 -75 -34
-80 0 -15 -36 -84 -54 -104 -8 -9 -18 -29 -22 -45 -8 -31 -51 -113 -64 -121
-5 -3 -14 -22 -20 -43 -14 -43 -43 -112 -69 -162 -10 -19 -24 -60 -31 -90 -7
-30 -21 -75 -32 -99 -10 -24 -23 -74 -29 -110 -22 -139 -28 -168 -48 -251 -13
-52 -21 -118 -21 -171 l0 -86 -42 -9 c-24 -4 -52 -7 -62 -6 -11 1 -35 -3 -55
-9 -19 -7 -80 -11 -136 -11 -117 2 -162 -15 -178 -64 -5 -16 -19 -39 -30 -51
-24 -26 -69 -104 -131 -223 -24 -47 -62 -109 -84 -137 -23 -28 -79 -109 -126
-179 -90 -137 -119 -174 -232 -306 -80 -92 -234 -304 -234 -320 0 -6 -29 -55
-64 -108 -36 -53 -68 -110 -72 -126 -4 -16 -15 -47 -25 -69 -17 -36 -19 -72
-19 -327 0 -168 -4 -288 -9 -288 -5 0 -18 11 -28 24 -37 47 -175 133 -315 195
-92 41 -200 131 -227 188 -47 101 -61 135 -80 194 -12 37 -21 72 -21 78 0 7
-8 29 -18 49 -76 151 -124 242 -132 247 -14 8 -50 92 -65 150 -18 73 -26 117
-35 224 -16 170 -31 211 -76 211 -36 0 -44 -34 -43 -178 0 -122 24 -312 47
-377 6 -16 15 -73 21 -125 10 -90 18 -125 61 -245 10 -27 25 -79 35 -115 16
-63 96 -200 116 -200 5 0 29 -18 53 -40 24 -22 48 -40 53 -40 6 0 16 -7 23
-15 7 -8 19 -15 27 -15 8 0 48 -36 90 -80 75 -80 141 -132 185 -145 12 -4 30
-13 38 -20 30 -26 142 -66 218 -77 42 -6 79 -13 81 -14 2 -2 9 -63 16 -136 11
-129 13 -135 48 -187 44 -63 69 -84 122 -101 22 -7 65 -24 95 -39 l55 -25 450
-7 c673 -10 895 -34 1186 -125 71 -22 93 -24 295 -24 l218 0 49 51 c28 29 64
82 84 125 l35 75 -4 147 c-3 112 -9 162 -25 212 -42 131 -73 237 -73 251 0 8
-8 26 -17 39 -10 14 -28 46 -40 72 -25 54 -229 261 -316 321 -67 47 -102 47
-102 3 0 -24 9 -37 45 -63 62 -46 163 -136 232 -208 58 -61 107 -148 128 -226
23 -91 42 -155 57 -194 11 -28 17 -89 20 -196 5 -150 4 -158 -20 -210 -13 -30
-37 -67 -52 -82 l-28 -28 -221 4 c-232 4 -211 1 -431 63 -79 22 -297 53 -455
65 -80 6 -341 14 -580 18 -415 7 -437 8 -475 28 -22 11 -60 27 -84 34 -64 19
-97 76 -106 183 -3 45 -8 93 -11 108 -4 20 -1 28 15 33 12 3 26 15 32 26 8 16
5 25 -21 50 l-30 31 0 306 c1 368 -2 356 110 522 21 30 44 71 53 90 19 45 181
264 266 360 76 85 109 130 211 284 40 61 90 133 112 160 22 28 60 89 85 136
70 134 106 194 138 232 30 36 30 36 160 52 138 17 168 21 226 32 l36 6 6 -115
c3 -64 12 -131 20 -149 8 -18 17 -54 21 -79 4 -30 22 -69 49 -109 23 -34 51
-76 61 -94 66 -107 189 -198 327 -240 82 -25 94 -26 340 -26 235 0 257 2 292
20 20 11 47 20 60 20 13 0 57 11 97 25 40 14 84 25 97 25 22 0 83 22 153 54
39 17 125 107 160 167 17 30 53 80 79 112 106 127 141 232 148 441 5 148 0
178 -52 311 -12 33 -29 78 -37 100 -11 32 -19 41 -41 43 -52 6 -53 -58 -2
-158 38 -75 47 -142 42 -300 -2 -80 -9 -167 -16 -193 -14 -63 -52 -133 -112
-204 -26 -32 -62 -82 -79 -111 -67 -115 -113 -143 -335 -201 -66 -17 -141 -38
-166 -46 -70 -22 -544 -21 -619 1 -77 23 -219 121 -250 174 -14 23 -34 54 -46
68 -36 48 -61 97 -68 138 -4 21 -14 58 -22 82 -11 32 -14 102 -14 289 0 228 2
255 25 357 14 61 30 136 36 166 20 110 66 270 84 290 7 8 18 34 24 57 7 23 16
45 21 48 5 3 14 25 21 48 6 23 17 49 24 57 19 23 65 113 65 129 0 8 7 22 15
31 19 20 65 108 65 122 0 6 16 45 36 87 41 85 46 95 73 166 41 109 118 255
180 345 68 98 192 227 271 283 l45 32 232 3 c189 3 238 1 265 -12 18 -8 51
-20 73 -27 22 -8 59 -24 82 -36 23 -13 50 -23 61 -23 10 0 32 -6 48 -14 82
-39 142 -66 149 -66 5 0 16 -6 24 -13 16 -13 73 -32 186 -61 131 -34 175 -48
180 -56 3 -4 23 -11 45 -15 22 -4 51 -16 65 -27 35 -27 142 -39 370 -41 177
-2 368 15 391 34 10 8 119 40 239 70 22 6 47 16 55 22 8 7 33 21 55 32 22 11
51 27 64 37 25 19 45 14 82 -23 21 -21 45 -24 84 -9 34 13 42 8 106 -69 30
-35 70 -71 89 -81 38 -19 104 -86 136 -136 10 -16 34 -46 54 -66 32 -34 61
-98 92 -198 6 -20 12 -167 15 -336 l5 -301 -26 -55 c-14 -30 -37 -65 -51 -78
-14 -13 -25 -29 -25 -37 0 -7 -12 -20 -27 -30 -16 -9 -39 -27 -53 -39 -37 -33
-173 -124 -185 -124 -5 0 -22 -13 -37 -29 -16 -15 -40 -34 -55 -42 -16 -8 -50
-31 -78 -53 -27 -21 -59 -42 -71 -46 -12 -5 -39 -24 -59 -42 -39 -34 -88 -63
-165 -99 -25 -11 -56 -25 -70 -32 -14 -6 -45 -25 -70 -42 -25 -16 -55 -35 -69
-40 -35 -16 -130 -190 -152 -282 -7 -26 -15 -52 -19 -58 -4 -5 -13 -28 -20
-50 -7 -22 -24 -60 -37 -85 -13 -25 -28 -61 -33 -80 -23 -97 -109 -371 -119
-384 -5 -6 -18 -47 -30 -91 -12 -44 -32 -120 -46 -170 -14 -49 -30 -115 -35
-145 -5 -30 -14 -71 -20 -90 -6 -19 -14 -110 -17 -202 l-6 -167 33 -67 c38
-78 78 -125 166 -195 35 -28 67 -61 70 -74 8 -34 71 -89 147 -130 38 -20 89
-52 115 -72 25 -19 57 -39 69 -44 51 -19 43 -52 -36 -145 -80 -97 -83 -98
-365 -91 -132 3 -250 1 -263 -4 -31 -11 -31 -54 0 -70 15 -9 100 -13 287 -13
l265 -1 63 48 c34 27 67 58 73 70 7 12 27 39 45 59 18 20 38 55 45 77 18 59 0
92 -75 141 -33 21 -73 48 -87 59 -15 12 -50 32 -79 47 -66 33 -112 74 -144
127 -24 41 -77 97 -91 97 -20 0 -93 80 -119 130 l-29 55 6 180 c4 137 9 187
21 210 9 17 16 44 16 61 0 35 58 260 90 349 49 139 90 266 90 280 0 19 50 176
61 190 4 6 17 37 30 70 12 33 28 67 35 76 8 8 18 40 24 69 16 83 81 210 128
247 35 28 64 45 202 113 59 29 112 60 148 88 19 15 50 36 68 47 31 19 87 58
370 259 138 98 196 160 247 266 l32 65 3 240 c5 335 -11 447 -80 580 -32 61
-165 222 -232 279 -76 66 -143 133 -163 162 -8 13 -22 24 -29 24 -8 0 -14 10
-14 25 0 44 -27 81 -68 98 -54 22 -80 12 -99 -34 -12 -32 -20 -39 -42 -39 -14
0 -46 -14 -71 -30 -82 -55 -194 -99 -304 -119 -32 -6 -65 -16 -72 -22 -59 -48
-634 -47 -730 1 -21 11 -44 20 -52 20 -7 0 -27 7 -44 16 -37 19 -174 61 -243
75 -27 5 -85 27 -130 48 -79 38 -123 56 -305 126 -52 20 -111 44 -130 53 -48
23 -471 29 -538 7z"/>
<path d="M5136 4641 c-46 -24 -65 -84 -45 -147 18 -59 52 -85 118 -92 47 -4
53 -2 81 28 17 18 33 43 36 56 8 33 -4 128 -20 149 -17 24 -126 27 -170 6z"/>
</g>
</svg>
